<svg xmlns="http://www.w3.org/2000/svg" viewBox="0 0 317.21 64.87"><defs><style>.cls-1{fill:#fff;}.cls-2{fill:#4d4d4d;}</style></defs><title>Recurso 1</title><g id="Capa_2" data-name="Capa 2"><g id="Capa_2-2" data-name="Capa 2"><path class="cls-1" d="M92.75,49.46l-1-2H85.54l-1,2h-.29l4.33-8.72h.11L93,49.46ZM88.25,42l-2.59,5.23h6L89,42l-.39-.8Z"/><path class="cls-1" d="M94,48.06l.22-.16a3.59,3.59,0,0,0,3,1.42,4.73,4.73,0,0,0,1.44-.2,2.4,2.4,0,0,0,1.12-.7,1.7,1.7,0,0,0,.47-1.21c0-.68-.44-1.2-1.33-1.56-.31-.12-.86-.3-1.66-.52l-1.09-.36a4.83,4.83,0,0,1-.88-.4,1.83,1.83,0,0,1-.68-.64,1.66,1.66,0,0,1-.23-.87,1.82,1.82,0,0,1,.84-1.6,3.42,3.42,0,0,1,2-.58,3.66,3.66,0,0,1,2.67,1l-.19.2A3.33,3.33,0,0,0,97.23,41a3.24,3.24,0,0,0-1.8.5,1.6,1.6,0,0,0-.76,1.39,1.39,1.39,0,0,0,.16.65,1.58,1.58,0,0,0,.39.48,2.5,2.5,0,0,0,.63.36c.27.11.5.2.7.26l.81.24L98,45l.55.16a2.9,2.9,0,0,1,.55.21l.46.23a1.67,1.67,0,0,1,.44.3l.3.34a1.26,1.26,0,0,1,.22.43,1.72,1.72,0,0,1,.07.52,2,2,0,0,1-.51,1.38,2.85,2.85,0,0,1-1.24.78,5.2,5.2,0,0,1-1.56.23A3.9,3.9,0,0,1,94,48.06"/><polygon class="cls-1" points="102.38 49.46 102.38 40.82 108.65 40.82 108.65 41.07 102.65 41.07 102.65 44.58 108.21 44.58 108.21 44.83 102.65 44.83 102.65 49.2 108.86 49.2 108.86 49.46 102.38 49.46"/><path class="cls-1" d="M110.23,48.06l.22-.16a3.59,3.59,0,0,0,3,1.42,4.73,4.73,0,0,0,1.44-.2,2.4,2.4,0,0,0,1.12-.7,1.66,1.66,0,0,0,.47-1.21c0-.68-.44-1.2-1.33-1.56-.31-.12-.86-.3-1.66-.52l-1.09-.36a4.83,4.83,0,0,1-.88-.4,1.83,1.83,0,0,1-.68-.64,1.66,1.66,0,0,1-.23-.87,1.82,1.82,0,0,1,.84-1.6,3.42,3.42,0,0,1,2-.58,3.66,3.66,0,0,1,2.67,1l-.19.2a3.33,3.33,0,0,0-2.48-.93,3.24,3.24,0,0,0-1.8.5,1.6,1.6,0,0,0-.76,1.39,1.39,1.39,0,0,0,.16.65,1.58,1.58,0,0,0,.39.48,2.5,2.5,0,0,0,.63.36c.27.11.5.2.7.26l.81.24.59.18.55.16a2.9,2.9,0,0,1,.55.21l.46.23a1.67,1.67,0,0,1,.44.3l.3.34a1.26,1.26,0,0,1,.22.43,1.72,1.72,0,0,1,.07.52,2,2,0,0,1-.51,1.38,2.79,2.79,0,0,1-1.24.78,5.2,5.2,0,0,1-1.56.23,3.9,3.9,0,0,1-3.24-1.53"/><path class="cls-1" d="M119.52,48.28a4.46,4.46,0,0,1,3.13-7.6A4.23,4.23,0,0,1,125.77,42a4.45,4.45,0,0,1,0,6.29,4.38,4.38,0,0,1-6.25,0m.19-6.1a4.23,4.23,0,0,0,0,5.92,4.14,4.14,0,0,0,5.87,0,4.23,4.23,0,0,0,0-5.92,4.12,4.12,0,0,0-5.87,0"/><path class="cls-1" d="M129,49.46V40.82h3.38a3.62,3.62,0,0,1,2.6.9,3.14,3.14,0,0,1,.33,4.12A3.29,3.29,0,0,1,133.58,47l2.29,2.5h-.35L133.32,47a5.52,5.52,0,0,1-.95.08h-3.11v2.35Zm.27-2.6h3.23a3.15,3.15,0,0,0,2.25-.84,2.66,2.66,0,0,0,.9-2,2.75,2.75,0,0,0-.89-2.07,3.14,3.14,0,0,0-2.25-.84h-3.24Z"/><polygon class="cls-1" points="137.73 49.46 137.73 40.82 144 40.82 144 41.07 138 41.07 138 44.58 143.56 44.58 143.56 44.83 138 44.83 138 49.2 144.21 49.2 144.21 49.46 137.73 49.46"/><path class="cls-1" d="M145.58,48.06l.22-.16a3.57,3.57,0,0,0,3,1.42,4.73,4.73,0,0,0,1.44-.2,2.4,2.4,0,0,0,1.12-.7,1.7,1.7,0,0,0,.47-1.21c0-.68-.45-1.2-1.34-1.56-.3-.12-.85-.3-1.65-.52l-1.09-.36a4.83,4.83,0,0,1-.88-.4,1.83,1.83,0,0,1-.68-.64,1.66,1.66,0,0,1-.23-.87,1.82,1.82,0,0,1,.84-1.6,3.42,3.42,0,0,1,2-.58,3.68,3.68,0,0,1,2.67,1l-.19.2a3.33,3.33,0,0,0-2.48-.93,3.24,3.24,0,0,0-1.8.5,1.6,1.6,0,0,0-.76,1.39,1.39,1.39,0,0,0,.16.65,1.72,1.72,0,0,0,.38.48,2.92,2.92,0,0,0,.63.36c.28.11.51.2.71.26l.81.24.59.18.55.16a3.21,3.21,0,0,1,.55.21l.46.23a1.67,1.67,0,0,1,.44.3l.3.34a1.26,1.26,0,0,1,.22.43,1.72,1.72,0,0,1,.07.52,2,2,0,0,1-.51,1.38,2.85,2.85,0,0,1-1.24.78,5.2,5.2,0,0,1-1.56.23,3.9,3.9,0,0,1-3.24-1.53"/><polygon class="cls-1" points="156.84 49.46 156.84 40.82 162.78 40.82 162.78 41.07 157.1 41.07 157.1 44.58 161.76 44.58 161.76 44.83 157.1 44.83 157.1 49.46 156.84 49.46"/><rect class="cls-1" x="164.3" y="40.82" width="0.27" height="8.64"/><polygon class="cls-1" points="166.89 49.46 166.89 40.82 167.13 40.82 173.7 49.01 173.7 40.82 173.97 40.82 173.97 49.46 173.72 49.46 167.16 41.3 167.16 49.46 166.89 49.46"/><path class="cls-1" d="M183.84,49.46l-1-2h-6.23l-1,2h-.3l4.34-8.72h.1l4.34,8.72ZM179.33,42l-2.58,5.23h6L180.13,42l-.4-.8Z"/><polygon class="cls-1" points="185.49 49.46 185.49 40.82 185.73 40.82 192.3 49.01 192.3 40.82 192.57 40.82 192.57 49.46 192.32 49.46 185.76 41.3 185.76 49.46 185.49 49.46"/><path class="cls-1" d="M195.8,48.28A4.43,4.43,0,1,1,202,42l-.19.19A4,4,0,0,0,198.92,41,4,4,0,0,0,196,42.18a4,4,0,0,0-1.21,3,4.07,4.07,0,0,0,1.22,3,4,4,0,0,0,2.93,1.22,4.15,4.15,0,0,0,1.74-.37,4.1,4.1,0,0,0,1.39-1l.19.17a4.39,4.39,0,0,1-6.44.2"/><rect class="cls-1" x="203.74" y="40.82" width="0.27" height="8.64"/><polygon class="cls-1" points="206.33 49.46 206.33 40.82 212.6 40.82 212.6 41.07 206.6 41.07 206.6 44.58 212.16 44.58 212.16 44.83 206.6 44.83 206.6 49.2 212.81 49.2 212.81 49.46 206.33 49.46"/><path class="cls-1" d="M214.6,49.46V40.82H218a3.62,3.62,0,0,1,2.6.9,3.14,3.14,0,0,1,.33,4.12A3.29,3.29,0,0,1,219.18,47l2.3,2.5h-.36L218.92,47a5.44,5.44,0,0,1-.95.08h-3.11v2.35Zm.26-2.6h3.23a3.14,3.14,0,0,0,2.25-.84,2.66,2.66,0,0,0,.9-2,2.75,2.75,0,0,0-.89-2.07,3.14,3.14,0,0,0-2.25-.84h-3.24Z"/><path class="cls-1" d="M224.23,48.28a4.46,4.46,0,0,1,3.13-7.6A4.23,4.23,0,0,1,230.48,42a4.45,4.45,0,0,1,0,6.29,4.38,4.38,0,0,1-6.25,0m.19-6.1a4.23,4.23,0,0,0,0,5.92,4.14,4.14,0,0,0,5.87,0,4.23,4.23,0,0,0,0-5.92,4.12,4.12,0,0,0-5.87,0"/><path class="cls-1" d="M233,48.06l.21-.16a3.6,3.6,0,0,0,3,1.42,4.71,4.71,0,0,0,1.43-.2,2.43,2.43,0,0,0,1.13-.7,1.7,1.7,0,0,0,.47-1.21c0-.68-.45-1.2-1.34-1.56-.3-.12-.85-.3-1.65-.52l-1.09-.36a4.54,4.54,0,0,1-.88-.4,1.76,1.76,0,0,1-.68-.64,1.57,1.57,0,0,1-.23-.87,1.82,1.82,0,0,1,.84-1.6,3.39,3.39,0,0,1,2-.58,3.68,3.68,0,0,1,2.67,1l-.19.2a3.33,3.33,0,0,0-2.48-.93,3.24,3.24,0,0,0-1.8.5,1.58,1.58,0,0,0-.76,1.39,1.28,1.28,0,0,0,.16.65,1.55,1.55,0,0,0,.38.48,2.92,2.92,0,0,0,.63.36c.27.11.51.2.7.26l.82.24L237,45l.55.16a3.07,3.07,0,0,1,.56.21l.45.23a1.51,1.51,0,0,1,.44.3,3.45,3.45,0,0,1,.3.34,1.28,1.28,0,0,1,.23.43,2.11,2.11,0,0,1,.07.52,2,2,0,0,1-.52,1.38,2.76,2.76,0,0,1-1.23.78,5.2,5.2,0,0,1-1.56.23A3.9,3.9,0,0,1,233,48.06"/><path class="cls-1" d="M87.09,18.54a8.69,8.69,0,0,1,14.82,6.14,8.69,8.69,0,1,1-14.82-6.14m.76,11.58a7.52,7.52,0,0,0,10.75,0,7.78,7.78,0,0,0,0-10.88,7.52,7.52,0,0,0-10.75,0,7.78,7.78,0,0,0,0,10.88"/><path class="cls-1" d="M107.05,18.54a8.64,8.64,0,0,1,12.16-.1l-.72.72A7.4,7.4,0,0,0,113.2,17a7.25,7.25,0,0,0-5.37,2.26,7.78,7.78,0,0,0,0,10.88,7.53,7.53,0,0,0,11-.32l.72.76a8.28,8.28,0,0,1-6.4,2.81,8.71,8.71,0,0,1-8.69-8.69,8.4,8.4,0,0,1,2.54-6.14"/><path class="cls-1" d="M129.28,16.25h.57l8.38,16.86h-1.09l-1.82-3.67h-11.5L122,33.11h-1.1Zm5.54,12.23L131,20.67l-1.4-3c-.47,1.07-.94,2.09-1.41,3l-3.87,7.78Z"/><polygon class="cls-1" points="143.25 20.41 141.61 18.12 141.61 33.11 140.57 33.11 140.57 16.25 141.48 16.25 149.16 26.81 156.83 16.25 157.74 16.25 157.74 33.11 156.7 33.11 156.7 18.12 155.06 20.41 149.16 28.53 143.25 20.41"/><path class="cls-1" d="M161.9,16.25h6.71a7.12,7.12,0,0,1,5.1,1.78,5.83,5.83,0,0,1,1.9,4.44,5.77,5.77,0,0,1-1.9,4.42,7.2,7.2,0,0,1-5.12,1.77h-5.65v4.45h-1Zm6.92,11.42a5.72,5.72,0,0,0,4.1-1.51,5.09,5.09,0,0,0,0-7.41,5.68,5.68,0,0,0-4.07-1.51h-5.91V27.67Z"/><path class="cls-1" d="M180.63,18.54a8.69,8.69,0,0,1,14.83,6.14,8.69,8.69,0,1,1-14.83-6.14m.77,11.58a7.52,7.52,0,0,0,10.75,0,7.78,7.78,0,0,0,0-10.88,7.52,7.52,0,0,0-10.75,0,7.78,7.78,0,0,0,0,10.88"/><polygon class="cls-1" points="201.71 16.25 202.82 16.25 208.99 29.21 210.13 31.63 211.25 29.21 217.44 16.25 218.56 16.25 210.37 33.24 209.9 33.24 201.71 16.25"/><path class="cls-1" d="M225.12,16.25h.57l8.38,16.86H233l-1.83-3.67h-11.5l-1.82,3.67h-1.09Zm5.54,12.23-3.85-7.81-1.41-3c-.46,1.07-.93,2.09-1.4,3l-3.88,7.78Z"/><polygon class="cls-1" points="235.37 32.07 246.53 18.33 247.52 17.24 235.89 17.24 235.89 16.25 248.69 16.25 248.69 17.29 237.5 31.08 236.56 32.12 248.95 32.12 248.95 33.11 235.37 33.11 235.37 32.07"/><path class="cls-1" d="M253.32,18.54a8.69,8.69,0,0,1,14.83,6.14,8.43,8.43,0,0,1-2.21,5.78l1.95,1.95-.68.7-2-1.95a8.69,8.69,0,0,1-14.46-6.48,8.38,8.38,0,0,1,2.55-6.14m.77,11.58a7.24,7.24,0,0,0,5.37,2.26,7.15,7.15,0,0,0,5-2l-2.23-2.26.7-.68,2.24,2.24a7.6,7.6,0,0,0,1.84-5.05,7.49,7.49,0,0,0-2.22-5.44,7.51,7.51,0,0,0-10.74,0,7.75,7.75,0,0,0,0,10.88"/><path class="cls-1" d="M273.23,31.52a6.29,6.29,0,0,1-2-4.81V16.25h1V26.79a5.32,5.32,0,0,0,1.66,4,6,6,0,0,0,8.17,0,5.33,5.33,0,0,0,1.67-4V16.25h1V26.71a6.29,6.29,0,0,1-2,4.81,7.22,7.22,0,0,1-9.65,0"/><polygon class="cls-1" points="288.75 16.25 301.16 16.25 301.16 17.24 289.79 17.24 289.79 23.46 300.35 23.46 300.35 24.45 289.79 24.45 289.79 32.12 301.55 32.12 301.55 33.11 288.75 33.11 288.75 16.25"/><polygon class="cls-1" points="303.63 32.07 314.79 18.33 315.78 17.24 304.15 17.24 304.15 16.25 316.95 16.25 316.95 17.29 305.76 31.08 304.83 32.12 317.21 32.12 317.21 33.11 303.63 33.11 303.63 32.07"/><rect class="cls-1" width="64.87" height="64.87"/><path class="cls-2" d="M7.5,27.74a8.75,8.75,0,0,1,6.42-2.67,8.72,8.72,0,0,1,6.42,2.67,9.07,9.07,0,0,1,0,12.85,8.71,8.71,0,0,1-6.42,2.66A8.74,8.74,0,0,1,7.5,40.59a9.07,9.07,0,0,1,0-12.85m.8,12.11a7.59,7.59,0,0,0,5.62,2.37,7.58,7.58,0,0,0,5.62-2.37,8.11,8.11,0,0,0,0-11.38,7.61,7.61,0,0,0-5.62-2.36A7.62,7.62,0,0,0,8.3,28.47a8.11,8.11,0,0,0,0,11.38"/><polygon class="cls-2" points="23.83 25.34 25 25.34 31.45 38.9 32.65 41.43 33.82 38.9 40.3 25.34 41.47 25.34 32.89 43.12 32.4 43.12 23.83 25.34"/><polygon class="cls-2" points="42.55 25.34 43.72 25.34 50.17 38.9 51.37 41.43 52.54 38.9 59.02 25.34 60.19 25.34 51.62 43.12 51.13 43.12 42.55 25.34"/></g></g></svg>