<?xml version="1.0" encoding="utf-8"?>
<!-- Generator: Adobe Illustrator 22.1.0, SVG Export Plug-In . SVG Version: 6.00 Build 0)  -->
<svg version="1.1" id="Capa_1" xmlns="http://www.w3.org/2000/svg" xmlns:xlink="http://www.w3.org/1999/xlink" x="0px" y="0px"
	 width="32px" height="33px" viewBox="0 0 32 33" style="enable-background:new 0 0 32 33;" xml:space="preserve">
<style type="text/css">
	.st0{fill:#FFFFFF;}
</style>
<g>
	<path class="st0" d="M22.7,19.5c-0.5,0-0.8,0.2-1,0.4l-2,2c0,0-0.1,0.1-0.3,0.1c-1.1,0-3.4-1.2-5.7-3.5c-3.1-3.1-3.8-5.6-3.4-6l2-2
		c1.3-1.3-1-4-2.5-5.5c-0.7-0.7-3-2.9-4.5-2.9c-0.5,0-0.8,0.2-1,0.4L0.4,6.4c-1.2,1.2-0.8,3.5,1.3,6.8c1.7,2.9,4.5,6.3,7.7,9.5
		c4.8,4.8,11.1,9.6,14.5,9.6h0c0.9,0,1.5-0.4,1.8-0.7l3.9-3.9c1.3-1.3-1-4-2.5-5.5C26.5,21.6,24.2,19.5,22.7,19.5z M24.3,30.3
		c0,0-0.1,0.1-0.4,0.1c-2,0-7.3-3.2-13.1-9.1c-3.1-3.1-5.8-6.4-7.4-9.1C1.5,9.1,1.7,8,1.8,7.8l3.7-3.7C6,4.3,7.1,5.1,8.4,6.4
		c1.3,1.3,2,2.4,2.2,2.9L8.9,11c-1.8,1.8,0.5,5.8,3.4,8.8c2.5,2.5,5.2,4.1,7.1,4.1c0.9,0,1.4-0.3,1.7-0.6l1.7-1.7
		c0.5,0.2,1.6,0.9,2.9,2.2c1.3,1.3,2,2.4,2.2,2.9L24.3,30.3z"/>
	<path class="st0" d="M28.2,3.9c-2.2-2.2-5-3.4-8.1-3.4c0,0,0,0,0,0c-0.5,0-1,0.4-1,1s0.4,1,1,1c0,0,0,0,0,0c2.5,0,4.9,1,6.7,2.8
		c1.8,1.8,2.8,4.2,2.8,6.7c0,0.5,0.4,1,1,1s1-0.4,1-1C31.6,9,30.4,6.1,28.2,3.9z"/>
	<path class="st0" d="M18.8,6.5C18.8,6.5,18.8,6.5,18.8,6.5c1.8,0,3.6,0.7,4.9,2c1.3,1.3,2,3,2,4.9c0,0.5,0.4,1,1,1s1-0.4,1-1
		c0-2.4-0.9-4.6-2.6-6.3c-1.7-1.7-3.9-2.6-6.3-2.6c0,0,0,0,0,0c-0.5,0-1,0.4-1,1S18.2,6.5,18.8,6.5z"/>
	<path class="st0" d="M17.5,10.4C17.5,10.4,17.5,10.4,17.5,10.4c1.1,0,2.2,0.4,3,1.2c0.8,0.8,1.2,1.9,1.2,3c0,0.5,0.4,1,1,1
		c0.5,0,1-0.4,1-1c0-1.7-0.6-3.2-1.8-4.4c-1.2-1.2-2.7-1.8-4.4-1.8c0,0,0,0,0,0c-0.5,0-1,0.4-1,1C16.5,10,16.9,10.4,17.5,10.4z"/>
</g>
</svg>
